<svg width="87" height="23" viewBox="0 0 87 23" fill="none" xmlns="http://www.w3.org/2000/svg">
<path d="M6.31894 18.2948H13.3552V22.4412H0.94753V0.390102H6.31894V18.2948ZM26.3459 22.661C24.2727 22.661 22.3671 22.1794 20.629 21.2161C18.9118 20.2528 17.5401 18.9126 16.514 17.1954C15.5088 15.4573 15.0063 13.5097 15.0063 11.3528C15.0063 9.19587 15.5088 7.25881 16.514 5.54163C17.5401 3.82445 18.9118 2.48422 20.629 1.52093C22.3671 0.557631 24.2727 0.0759843 26.3459 0.0759843C28.4191 0.0759843 30.3143 0.557631 32.0314 1.52093C33.7696 2.48422 35.1307 3.82445 36.115 5.54163C37.1201 7.25881 37.6227 9.19587 37.6227 11.3528C37.6227 13.5097 37.1201 15.4573 36.115 17.1954C35.1098 18.9126 33.7486 20.2528 32.0314 21.2161C30.3143 22.1794 28.4191 22.661 26.3459 22.661ZM26.3459 17.7608C28.105 17.7608 29.508 17.1745 30.5551 16.0017C31.6231 14.829 32.1571 13.2794 32.1571 11.3528C32.1571 9.40528 31.6231 7.85563 30.5551 6.70387C29.508 5.53116 28.105 4.94481 26.3459 4.94481C24.5659 4.94481 23.1419 5.52069 22.0739 6.67245C21.0268 7.82422 20.5033 9.38434 20.5033 11.3528C20.5033 13.3003 21.0268 14.8605 22.0739 16.0332C23.1419 17.1849 24.5659 17.7608 26.3459 17.7608ZM55.2489 7.36351C54.851 6.63057 54.2751 6.07563 53.5213 5.69869C52.7883 5.30081 51.9193 5.10187 50.9141 5.10187C49.176 5.10187 47.7834 5.67775 46.7363 6.82951C45.6893 7.96034 45.1657 9.47857 45.1657 11.3842C45.1657 13.4155 45.7102 15.007 46.7991 16.1588C47.909 17.2896 49.4273 17.855 51.3538 17.855C52.6731 17.855 53.783 17.52 54.6835 16.8499C55.6049 16.1797 56.275 15.2165 56.6938 13.96H49.8775V10.0021H61.5627V14.9966C61.1648 16.3368 60.4842 17.5828 59.5209 18.7346C58.5786 19.8863 57.3744 20.8182 55.9086 21.5302C54.4427 22.2422 52.7883 22.5982 50.9455 22.5982C48.7676 22.5982 46.8201 22.127 45.1029 21.1847C43.4067 20.2214 42.0769 18.8916 41.1136 17.1954C40.1713 15.4992 39.7001 13.5621 39.7001 11.3842C39.7001 9.20634 40.1713 7.26928 41.1136 5.57304C42.0769 3.85587 43.4067 2.5261 45.1029 1.58375C46.7991 0.620454 48.7362 0.138807 50.9141 0.138807C53.5527 0.138807 55.7724 0.777513 57.5734 2.05492C59.3953 3.33234 60.5994 5.10187 61.1857 7.36351H55.2489ZM74.9667 22.661C72.8935 22.661 70.9878 22.1794 69.2497 21.2161C67.5325 20.2528 66.1609 18.9126 65.1348 17.1954C64.1296 15.4573 63.627 13.5097 63.627 11.3528C63.627 9.19587 64.1296 7.25881 65.1348 5.54163C66.1609 3.82445 67.5325 2.48422 69.2497 1.52093C70.9878 0.557631 72.8935 0.0759843 74.9667 0.0759843C77.0398 0.0759843 78.935 0.557631 80.6522 1.52093C82.3903 2.48422 83.7515 3.82445 84.7357 5.54163C85.7409 7.25881 86.2435 9.19587 86.2435 11.3528C86.2435 13.5097 85.7409 15.4573 84.7357 17.1954C83.7305 18.9126 82.3694 20.2528 80.6522 21.2161C78.935 22.1794 77.0398 22.661 74.9667 22.661ZM74.9667 17.7608C76.7257 17.7608 78.1288 17.1745 79.1758 16.0017C80.2438 14.829 80.7778 13.2794 80.7778 11.3528C80.7778 9.40528 80.2438 7.85563 79.1758 6.70387C78.1288 5.53116 76.7257 4.94481 74.9667 4.94481C73.1867 4.94481 71.7627 5.52069 70.6947 6.67245C69.6476 7.82422 69.1241 9.38434 69.1241 11.3528C69.1241 13.3003 69.6476 14.8605 70.6947 16.0332C71.7627 17.1849 73.1867 17.7608 74.9667 17.7608Z" fill="white"/>
</svg>
